:SAMPLES-PER-SECOND 30
:FULLY-SPECIFIED
:DEGREES
1608
root  9.58266 34.1988 -2.62064 107.542 -85.9986 -92.3973
RightUpLeg  -57.2156 -7.20409 6.11417
RightLeg  59.307 -5.61686 -10.6058
RightFoot  -14.0194 -0.0758305 0.808895
RightToes  -4.65663e-010 0 -3.6325e-017
Spine  53.7791 -2.66175 7.08615
Spine1  11.7872 0.552136 -0.427727
HEad  -16.5353 -1.21234 -2.67906
LeftShoulder1  7.97162 -16.4315 -33.9217
LeftArm  -9.18428 -50.5712 -10.7332
LeftForeArm  22.228 -24.4476 -4.06012
LeftHand  -0.244104 0.0205437 5.32207
RightShoulder  5.25037 13.4717 24.782
RightArm  -2.63631 50.0793 25.5972
RightForeArm  4.23882 24.5393 5.0332
RightHand  -1.37573 4.16712 -16.8546
LeftUpLeg  -58.0179 8.95893 5.23179
LeftLeg  60.9863 4.23843 8.82399
LeftFoot  -15.6663 -0.0912489 -4.89962
LeftToes  4.18335e-011 1.59304e-011 3.38507e-012
1609
root  9.7895 33.1749 -2.66271 105.826 -86.1019 -92.1903
RightUpLeg  -59.1353 -6.56947 5.63886
RightLeg  64.9476 -4.89308 -11.9259
RightFoot  -16.1021 -0.0444939 1.55463
RightToes  -4.65663e-010 0 -3.6325e-017
Spine  56.2716 -2.68563 6.87424
Spine1  11.6509 0.656255 -0.614969
HEad  -17.8695 -1.2085 -2.14465
LeftShoulder1  7.70807 -16.4161 -32.6375
LeftArm  -11.8444 -51.7229 -7.89966
LeftForeArm  22.3004 -24.694 -4.10868
LeftHand  -0.244104 0.0205437 5.32207
RightShoulder  5.16321 13.4699 24.2467
RightArm  -3.83963 50.7029 22.6561
RightForeArm  2.8104 23.9816 4.98449
RightHand  -1.7413 5.35773 -18.9406
LeftUpLeg  -59.8829 8.46599 5.70831
LeftLeg  66.4029 3.44944 9.34835
LeftFoot  -17.4375 -0.200637 -5.7318
LeftToes  4.18335e-011 1.59304e-011 3.38507e-012
1610
root  9.99872 32.1115 -2.70824 102.296 -86.35 -90.1401
RightUpLeg  -61.1281 -6.2269 5.13196
RightLeg  70.4061 -3.93786 -13.0208
RightFoot  -17.9915 0.0060141 2.20414
RightToes  -4.65663e-010 0 -3.6325e-017
Spine  58.6467 -2.57303 6.47829
Spine1  11.4326 0.647025 -0.492746
HEad  -18.9892 -1.21634 -1.64761
LeftShoulder1  7.48206 -16.424 -31.4857
LeftArm  -14.9118 -52.4336 -4.89087
LeftForeArm  22.8969 -25.515 -4.25306
LeftHand  -0.244104 0.0205437 5.32207
RightShoulder  5.08814 13.5124 23.7021
RightArm  -5.68178 50.8834 19.6607
RightForeArm  1.79658 24.1594 5.07618
RightHand  -2.10585 6.40931 -20.8141
LeftUpLeg  -61.8121 7.98485 5.94716
LeftLeg  71.6056 2.61113 9.7173
LeftFoot  -19.0078 -0.305172 -6.25383
LeftToes  4.18335e-011 1.59304e-011 3.38507e-012
1611
root  10.2106 31.0153 -2.75621 97.0073 -86.6171 -86.2
RightUpLeg  -63.2888 -5.91301 4.62271
RightLeg  75.663 -2.86686 -14.0611
RightFoot  -19.5812 0.0713343 2.83137
RightToes  -4.65663e-010 0 -3.6325e-017
Spine  60.6121 -2.32669 5.97896
Spine1  11.4329 0.595051 -0.0655813
HEad  -20.0232 -1.29435 -1.42758
LeftShoulder1  7.36889 -16.4587 -30.8484
LeftArm  -18.033 -52.9093 -1.35585
LeftForeArm  23.4934 -26.7539 -4.49097
LeftHand  -0.244104 0.0205437 5.32207
RightShoulder  4.99247 13.5981 22.9529
RightArm  -8.11463 50.7848 16.7053
RightForeArm  1.36973 24.8209 5.24507
RightHand  -2.4857 7.61559 -22.2396
LeftUpLeg  -63.906 7.61551 6.03188
LeftLeg  76.6051 1.75257 9.93335
LeftFoot  -20.4707 -0.397774 -6.51473
LeftToes  4.18335e-011 1.59304e-011 3.38507e-012
1612
root  10.4318 29.9015 -2.80543 88.5203 -86.8627 -78.902
RightUpLeg  -65.5777 -5.57451 4.07062
RightLeg  80.6418 -1.71671 -15.0956
RightFoot  -21.0166 0.158556 3.55351
RightToes  -4.65663e-010 0 -3.6325e-017
Spine  62.1349 -2.16217 5.47033
Spine1  11.6249 0.485012 0.249786
HEad  -20.9026 -1.37098 -1.30202
LeftShoulder1  7.25626 -16.4305 -30.3288
LeftArm  -20.7834 -53.2422 2.52795
LeftForeArm  23.7257 -28.0842 -4.77455
LeftHand  -0.244104 0.0205437 5.32207
RightShoulder  4.89921 13.7228 22.1538
RightArm  -10.5639 50.6251 13.888
RightForeArm  1.32451 25.6029 5.42347
RightHand  -2.92071 9.04714 -23.4966
LeftUpLeg  -66.1892 7.21762 6.01861
LeftLeg  81.3353 0.91727 10.0334
LeftFoot  -21.7543 -0.476038 -6.6504
LeftToes  4.18335e-011 1.59304e-011 3.38507e-012
1613
root  10.6523 28.767 -2.85715 75.4509 -87.1066 -66.9733
RightUpLeg  -67.9008 -5.34571 3.40079
RightLeg  85.4299 -0.450476 -16.0146
RightFoot  -22.4189 0.261895 4.26756
RightToes  -4.65663e-010 0 -3.6325e-017
Spine  63.5345 -2.16634 4.96185
Spine1  11.5369 0.296536 0.166641
HEad  -21.3299 -1.38669 -0.785822
LeftShoulder1  6.94235 -16.1925 -29.1573
LeftArm  -22.9316 -53.469 5.92523
LeftForeArm  24.1104 -29.2092 -5.0098
LeftHand  -0.244104 0.0205437 5.32207
RightShoulder  4.8118 13.7803 21.5149
RightArm  -12.6353 50.2966 11.4295
RightForeArm  1.75493 26.6166 5.63341
RightHand  -3.3131 10.2235 -24.6038
LeftUpLeg  -68.5762 6.66749 5.85907
LeftLeg  85.8493 0.116254 10.0973
LeftFoot  -22.7863 -0.529455 -6.64244
LeftToes  4.18335e-011 1.59304e-011 3.38507e-012
1614
root  10.8463 27.594 -2.90624 60.6181 -87.3309 -53.4043
RightUpLeg  -70.1861 -5.17664 2.65186
RightLeg  90.1861 0.957381 -16.7417
RightFoot  -23.6632 0.350786 4.73736
RightToes  -4.65663e-010 0 -3.6325e-017
Spine  64.8076 -2.12181 4.49027
Spine1  11.3308 0.174622 -0.128945
HEad  -21.4251 -1.47845 0.165844
LeftShoulder1  6.52602 -15.8918 -27.5196
LeftArm  -24.9462 -53.7598 8.89517
LeftForeArm  25.1055 -30.0198 -5.14305
LeftHand  -0.244104 0.0205437 5.32207
RightShoulder  4.72038 13.717 21.0586
RightArm  -14.6564 49.5917 9.0533
RightForeArm  2.61307 28.1979 5.95993
RightHand  -3.56077 10.842 -25.3979
LeftUpLeg  -70.9001 6.15712 5.57421
LeftLeg  90.3476 -0.688499 10.1541
LeftFoot  -23.6516 -0.555703 -6.46399
LeftToes  4.18335e-011 1.59304e-011 3.38507e-012
